<?xml version="1.0" encoding="utf-8"?>
<!-- Generator: Adobe Illustrator 28.1.0, SVG Export Plug-In . SVG Version: 6.00 Build 0)  -->
<svg version="1.1"
	 id="svg3967" xmlns:dc="http://purl.org/dc/elements/1.1/" xmlns:svg="http://www.w3.org/2000/svg" xmlns:inkscape="http://www.inkscape.org/namespaces/inkscape" xmlns:sodipodi="http://sodipodi.sourceforge.net/DTD/sodipodi-0.dtd" xmlns:rdf="http://www.w3.org/1999/02/22-rdf-syntax-ns#" xmlns:osb="http://www.openswatchbook.org/uri/2009/osb" xmlns:cc="http://creativecommons.org/ns#"
	 xmlns="http://www.w3.org/2000/svg" xmlns:xlink="http://www.w3.org/1999/xlink" x="0px" y="0px" viewBox="0 0 64 64"
	 style="enable-background:new 0 0 64 64;" xml:space="preserve">
<style type="text/css">
	.st0{fill-rule:evenodd;clip-rule:evenodd;fill:url(#rect5358_00000007411413382192079510000010016919029273075373_);}
	
		.st1{opacity:0.5;fill-rule:evenodd;clip-rule:evenodd;fill:url(#rect991_00000043429610671313739710000002543970588159600053_);enable-background:new    ;}
	.st2{fill-rule:evenodd;clip-rule:evenodd;fill:#DEDEDE;}
	.st3{fill-rule:evenodd;clip-rule:evenodd;fill:url(#rect15455_00000070824559104627854660000015997186644957802889_);}
	.st4{fill-rule:evenodd;clip-rule:evenodd;fill:url(#rect936_00000078022445654695030140000017904359442460108208_);}
	.st5{fill-rule:evenodd;clip-rule:evenodd;}
	.st6{fill-rule:evenodd;clip-rule:evenodd;fill:#14232B;}
	.st7{fill-rule:evenodd;clip-rule:evenodd;fill:#706BC8;}
	.st8{fill-rule:evenodd;clip-rule:evenodd;fill:#55C5E4;}
	.st9{fill-rule:evenodd;clip-rule:evenodd;fill:#84DDEA;}
	.st10{fill-rule:evenodd;clip-rule:evenodd;fill:#997BC8;}
	.st11{opacity:0.75;filter:url(#filter4303);}
	.st12{fill:none;stroke:#000000;stroke-width:0.25;stroke-miterlimit:1.4142;}
</style>
<filter  height="1.0185227" id="filter4303" inkscape:collect="always" style="color-interpolation-filters:sRGB" width="1.0153704" x="-0.0076852223" y="-0.0092613701">
	<feGaussianBlur  id="feGaussianBlur4305" inkscape:collect="always" stdDeviation="0.1698072"></feGaussianBlur>
</filter>
<sodipodi:namedview  bordercolor="#666666" borderopacity="1" fit-margin-bottom="0" fit-margin-left="0" fit-margin-right="0" fit-margin-top="0" gridtolerance="10" guidetolerance="10" id="namedview3969" inkscape:current-layer="g4199" inkscape:cx="18.421176" inkscape:cy="32.472856" inkscape:guide-bbox="true" inkscape:lockguides="false" inkscape:measure-end="23.3668,17.3739" inkscape:measure-start="35.0647,26.4746" inkscape:object-nodes="true" inkscape:pagecheckerboard="false" inkscape:pageopacity="1" inkscape:pageshadow="2" inkscape:showpageshadow="false" inkscape:snap-grids="false" inkscape:snap-page="false" inkscape:snap-smooth-nodes="false" inkscape:snap-to-guides="false" inkscape:window-height="2059" inkscape:window-maximized="1" inkscape:window-width="3840" inkscape:window-x="0" inkscape:window-y="48" inkscape:zoom="22.801856" objecttolerance="10" pagecolor="#1b1b1b" showborder="true" showgrid="true" showguides="false" viewbox-y="-0.5">
	
		<sodipodi:guide  id="guide959" inkscape:color="rgb(0,0,255)" inkscape:label="A Right" inkscape:locked="false" orientation="1,0" position="52,8.2500022">
		</sodipodi:guide>
	
		<sodipodi:guide  id="guide961" inkscape:color="rgb(0,0,255)" inkscape:label="A Top" inkscape:locked="false" orientation="0,1" position="33,48.250002">
		</sodipodi:guide>
	
		<sodipodi:guide  id="guide963" inkscape:color="rgb(0,0,255)" inkscape:label="A Left" inkscape:locked="false" orientation="1,0" position="14,8.2500022">
		</sodipodi:guide>
	
		<sodipodi:guide  id="guide965" inkscape:color="rgb(0,0,255)" inkscape:label="Vertical Center" inkscape:locked="false" orientation="1,0" position="33,24.750002">
		</sodipodi:guide>
	
		<sodipodi:guide  id="guide967" inkscape:color="rgb(0,0,255)" inkscape:label="Horizontal Center" inkscape:locked="false" orientation="0,1" position="33,24.750002">
		</sodipodi:guide>
	
		<sodipodi:guide  id="guide969" inkscape:color="rgb(0,0,255)" inkscape:label="Flame Left" inkscape:locked="false" orientation="1,0" position="28.813,21.500002">
		</sodipodi:guide>
	
		<sodipodi:guide  id="guide971" inkscape:color="rgb(0,0,255)" inkscape:label="Flame Right" inkscape:locked="false" orientation="1,0" position="37.187,21.500002">
		</sodipodi:guide>
	
		<sodipodi:guide  id="guide973" inkscape:color="rgb(0,0,255)" inkscape:label="A Top Left" inkscape:locked="false" orientation="1,0" position="29.5,48.250002">
		</sodipodi:guide>
	
		<sodipodi:guide  id="guide975" inkscape:color="rgb(0,0,255)" inkscape:label="A Top Right" inkscape:locked="false" orientation="1,0" position="36.5,48.250002">
		</sodipodi:guide>
	
		<sodipodi:guide  id="guide977" inkscape:color="rgb(0,0,255)" inkscape:label="Width A Left" inkscape:locked="false" orientation="1,0" position="20.5,8.2500022">
		</sodipodi:guide>
	
		<sodipodi:guide  id="guide979" inkscape:color="rgb(0,0,255)" inkscape:label="Width A Right" inkscape:locked="false" orientation="1,0" position="45.5,8.2500022">
		</sodipodi:guide>
	
		<sodipodi:guide  id="guide981" inkscape:color="rgb(0,0,255)" inkscape:label="A Bottom" inkscape:locked="false" orientation="0,1" position="14,8.2500022">
		</sodipodi:guide>
	
		<sodipodi:guide  id="guide983" inkscape:color="rgb(0,0,255)" inkscape:label="Flame Curve Intersect" inkscape:locked="false" orientation="0,1" position="33,12.688002">
		</sodipodi:guide>
	
		<sodipodi:guide  id="guide985" inkscape:color="rgb(0,0,255)" inkscape:label="Right Flame Curve" inkscape:locked="false" orientation="1,0" position="34.5,12.688002">
		</sodipodi:guide>
	
		<sodipodi:guide  id="guide987" inkscape:color="rgb(0,0,255)" inkscape:label="Left Flame Curve" inkscape:locked="false" orientation="1,0" position="31.5,12.688002">
		</sodipodi:guide>
	
		<sodipodi:guide  id="guide3628" inkscape:color="rgb(0,0,255)" inkscape:label="Inner Flame Angle Right" inkscape:locked="false" orientation="-0.93245628,0.36128283" position="33,15.855002">
		</sodipodi:guide>
	
		<sodipodi:guide  id="guide3630" inkscape:color="rgb(0,0,255)" inkscape:label="Inner Flame Angle Left" inkscape:locked="false" orientation="-0.93245628,-0.36128283" position="33,15.855002">
		</sodipodi:guide>
	
		<sodipodi:guide  id="guide3644" inkscape:color="rgb(0,0,255)" inkscape:label="Flame Center" inkscape:locked="false" orientation="0,1" position="33,21.500002">
		</sodipodi:guide>
	
		<sodipodi:guide  id="guide3646" inkscape:color="rgb(0,0,255)" inkscape:label="Inner Flame Left" inkscape:locked="false" orientation="1,0" position="29.813,24.080519">
		</sodipodi:guide>
	
		<sodipodi:guide  id="guide3648" inkscape:color="rgb(0,0,255)" inkscape:label="Inner Flame Right" inkscape:locked="false" orientation="1,0" position="36.187,24.080519">
		</sodipodi:guide>
	
		<sodipodi:guide  id="guide3650" inkscape:color="rgb(0,0,255)" inkscape:label="Flame Top" inkscape:locked="false" orientation="0,1" position="33,32.305002">
		</sodipodi:guide>
	
		<sodipodi:guide  id="guide3652" inkscape:color="rgb(0,0,255)" inkscape:label="Flame Bottom" inkscape:locked="false" orientation="0,1" position="33,5.0000022">
		</sodipodi:guide>
	
		<sodipodi:guide  id="guide3936" inkscape:color="rgb(0,0,255)" inkscape:label="Term Top" inkscape:locked="false" orientation="0,1" position="33,53.750002">
		</sodipodi:guide>
	
		<sodipodi:guide  id="guide3938" inkscape:color="rgb(0,0,255)" inkscape:label="Term Bottom" inkscape:locked="false" orientation="0,1" position="33,3.0000022">
		</sodipodi:guide>
	
		<sodipodi:guide  id="guide3940" inkscape:color="rgb(0,0,255)" inkscape:label="Term Right" inkscape:locked="false" orientation="1,0" position="63,24.750002">
		</sodipodi:guide>
	
		<sodipodi:guide  id="guide3942" inkscape:color="rgb(0,0,255)" inkscape:label="Term Left" inkscape:locked="false" orientation="1,0" position="3.0000001,24.750002">
		</sodipodi:guide>
	
		<sodipodi:guide  id="guide15457" inkscape:color="rgb(0,0,255)" inkscape:label="Outline Top" inkscape:locked="false" orientation="0,1" position="1.4777768e-07,56.750002">
		</sodipodi:guide>
	
		<sodipodi:guide  id="guide15459" inkscape:color="rgb(0,0,255)" inkscape:label="Outline Left" inkscape:locked="false" orientation="1,0" position="1.4777768e-07,56.750002">
		</sodipodi:guide>
	
		<sodipodi:guide  id="guide15461" inkscape:color="rgb(0,0,255)" inkscape:label="Outline Bottom" inkscape:locked="false" orientation="0,1" position="66,2.2454491e-06">
		</sodipodi:guide>
	
		<sodipodi:guide  id="guide15463" inkscape:color="rgb(0,0,255)" inkscape:label="Outline Right" inkscape:locked="false" orientation="1,0" position="66,2.2454491e-06">
		</sodipodi:guide>
</sodipodi:namedview>
<g id="layer3" transform="translate(0,7.3208818)" inkscape:groupmode="layer" inkscape:label="Topbar" sodipodi:insensitive="true">
	<g id="g1008">
		
			<linearGradient id="rect5358_00000106114345971659615390000009532004859784218031_" gradientUnits="userSpaceOnUse" x1="20.5221" y1="61.2701" x2="81.4586" y2="61.2701" gradientTransform="matrix(0.9558 0 0 -1.0104 -16.7359 60.5467)">
			<stop  offset="0" style="stop-color:#EC2802"/>
			<stop  offset="1" style="stop-color:#FCB200"/>
		</linearGradient>
		
			<path id="rect5358" style="fill-rule:evenodd;clip-rule:evenodd;fill:url(#rect5358_00000106114345971659615390000009532004859784218031_);" d="
			M5-4.4H59c1.1,0,2.1,0.9,2.1,2.1v1.9c0,1.2-0.9,2.1-2.1,2.1H5c-1.1,0-2.1-0.9-2.1-2.1v-1.9C2.9-3.5,3.8-4.4,5-4.4z"/>
		
			<linearGradient id="rect991_00000140009435728246856210000009344885013218141094_" gradientUnits="userSpaceOnUse" x1="50.9904" y1="59.3603" x2="50.9904" y2="63.0931" gradientTransform="matrix(0.9558 0 0 -1.0104 -16.7359 60.5467)">
			<stop  offset="0" style="stop-color:#000000"/>
			<stop  offset="1" style="stop-color:#000000;stop-opacity:0"/>
		</linearGradient>
		
			<path id="rect991" style="opacity:0.5;fill-rule:evenodd;clip-rule:evenodd;fill:url(#rect991_00000140009435728246856210000009344885013218141094_);enable-background:new    ;" d="
			M5-4.4H59c1.1,0,2.1,0.9,2.1,2.1v1.9c0,1.2-0.9,2.1-2.1,2.1H5c-1.1,0-2.1-0.9-2.1-2.1v-1.9C2.9-3.5,3.8-4.4,5-4.4z"/>
	</g>
</g>
<g id="layer7" transform="translate(-16,4.7828817)" inkscape:groupmode="layer" inkscape:label="Outline" sodipodi:insensitive="true">
	<g id="g951">
		<path id="rect944" class="st2" d="M19.4,0.7h57.2c1.9,0,3.4,1.5,3.4,3.4v47.4c0,1.9-1.5,3.4-3.4,3.4H19.4c-1.9,0-3.4-1.5-3.4-3.4
			V4.2C16,2.3,17.5,0.7,19.4,0.7z"/>
		
			<linearGradient id="rect15455_00000058557239013371663230000004624641610631309728_" gradientUnits="userSpaceOnUse" x1="77.125" y1="44.3922" x2="77.125" y2="-12.4508" gradientTransform="matrix(0.9697 0 0 -0.9513 -26.7879 43.461)">
			<stop  offset="0" style="stop-color:#AAAAAA"/>
			<stop  offset="1" style="stop-color:#424242"/>
		</linearGradient>
		
			<path id="rect15455" style="fill-rule:evenodd;clip-rule:evenodd;fill:url(#rect15455_00000058557239013371663230000004624641610631309728_);" d="
			M19.4,1.2h57.2c1.9,0,3.4,1.5,3.4,3.4v47.1c0,1.9-1.5,3.4-3.4,3.4H19.4c-1.9,0-3.4-1.5-3.4-3.4V4.7C16,2.8,17.5,1.2,19.4,1.2z"/>
		
			<linearGradient id="rect936_00000070081982731426165180000018118230892646759317_" gradientUnits="userSpaceOnUse" x1="135.8178" y1="645.2734" x2="135.8178" y2="588.4304" gradientTransform="matrix(0.8457 0 0 0.8222 -66.8541 -478.8887)">
			<stop  offset="0" style="stop-color:#AAAAAA"/>
			<stop  offset="1" style="stop-color:#424242"/>
		</linearGradient>
		
			<path id="rect936" style="fill-rule:evenodd;clip-rule:evenodd;fill:url(#rect936_00000070081982731426165180000018118230892646759317_);" d="
			M21.7,51.6h52.5c0.9,0,1.6-0.7,1.6-1.7V6.6c0-0.9-0.7-1.7-1.6-1.7H21.7c-0.9,0-1.6,0.7-1.6,1.7V50C20.1,50.9,20.8,51.6,21.7,51.6z
			"/>
	</g>
</g>
<g id="layer4" transform="translate(-16,35.820639)" inkscape:groupmode="layer" inkscape:label="Background" sodipodi:insensitive="true">
	<path id="rect3934" class="st5" d="M21.9-25.6h52.2c0.8,0,1.5,0.7,1.5,1.5v42.6c0,0.8-0.7,1.5-1.5,1.5H21.9c-0.8,0-1.5-0.7-1.5-1.5
		V-24C20.4-24.9,21.1-25.6,21.9-25.6z"/>
	<rect id="rect932" x="21.5" y="-24.6" class="st6" width="52.9" height="43.7"/>
</g>
<path class="st7" d="M19.1,12.8l24.8,14.3c0.7,0.4,1.1,1.1,1.1,1.9v4.8c0,0.4-0.1,0.8-0.3,1.1c0,0-19.7-11.4-24.5-14.2
	c-0.7-0.4-1.1-1.1-1.1-1.8V12.8z"/>
<path class="st8" d="M43.9,45.6c0.7,0.4,1.1,1.1,1.1,1.8v6L20.1,39.1c-0.7-0.4-1.1-1.1-1.1-1.9v-4.8c0-0.4,0.1-0.8,0.3-1.1
	C19.4,31.4,39,42.8,43.9,45.6"/>
<path class="st9" d="M21.5,37.1c-0.2,0.1-0.4,0.3-0.6,0.6c-0.4,0.8-0.2,1.7,0.6,2.2h0l-1.3-0.7c-0.7-0.4-1.1-1.1-1.1-1.9v-4.8
	c0-0.8,0.4-1.5,1.1-1.9l22.4-12.9l0,0c0.2-0.1,0.4-0.3,0.6-0.6c0.4-0.8,0.2-1.7-0.6-2.2h0l1.3,0.7c0.7,0.4,1.1,1.1,1.1,1.9v4.8
	c0,0.8-0.4,1.5-1.1,1.9L42.5,25l0,0L21.5,37.1z"/>
<path class="st10" d="M21.5,48.5c-0.2,0.1-0.4,0.3-0.6,0.6c-0.4,0.8-0.2,1.7,0.6,2.2h0l-1.3-0.7c-0.7-0.4-1.1-1.1-1.1-1.9v-4.8
	c0-0.8,0.4-1.5,1.1-1.9l22.4-12.9l0,0c0.2-0.1,0.4-0.3,0.6-0.6c0.4-0.8,0.2-1.7-0.6-2.2h0l1.3,0.7c0.7,0.4,1.1,1.1,1.1,1.9v4.8
	c0,0.8-0.4,1.5-1.1,1.9l-1.3,0.8l0,0L21.5,48.5z"/>
<g id="layer6" transform="translate(-16,4.7828817)" inkscape:groupmode="layer" inkscape:label="Scanlines" sodipodi:insensitive="true">
	<g id="g4141" class="st11">
		<path id="path1394_00000103971504018928403070000004715711796591515785_" inkscape:connector-curvature="0" class="st12" d="
			M21.5,29.4h53"/>
		<path id="path1396_00000098199447448879949220000000603289102903395721_" inkscape:connector-curvature="0" class="st12" d="
			M21.5,44.8h53"/>
		<path id="path1398_00000013896542884221133620000012034670022970337448_" inkscape:connector-curvature="0" class="st12" d="
			M21.5,32.7h53"/>
		<path id="path1400_00000015339311129597880840000005105301823367629241_" inkscape:connector-curvature="0" class="st12" d="
			M21.5,39.3h53"/>
		<path id="path1402_00000008140261285342239310000016410749080222310059_" inkscape:connector-curvature="0" class="st12" d="
			M21.5,7.4h53"/>
		<path id="path1404_00000036972459041529410000000004367714698853818760_" inkscape:connector-curvature="0" class="st12" d="
			M21.5,33.8h53"/>
		<path id="path1406_00000163778825150900750020000005822339137398226305_" inkscape:connector-curvature="0" class="st12" d="
			M21.5,22.8h53"/>
		<path id="path1408_00000174604154739232379070000014606887076036998289_" inkscape:connector-curvature="0" class="st12" d="
			M21.5,14h53"/>
		<path id="path1410_00000088121945390461006380000017547704799433156480_" inkscape:connector-curvature="0" class="st12" d="
			M21.5,25h53"/>
		<path id="path1412_00000124862956884551841870000004574187019187118747_" inkscape:connector-curvature="0" class="st12" d="
			M21.5,11.8h53"/>
		<path id="path1414_00000150780571371302379120000004989991116218538665_" inkscape:connector-curvature="0" class="st12" d="
			M21.5,47h53"/>
		<path id="path1416_00000062178939078253108600000008080783131801932732_" inkscape:connector-curvature="0" class="st12" d="
			M21.5,48.1h53"/>
		<path id="path1418_00000147213010584979294610000017977495273378018482_" inkscape:connector-curvature="0" class="st12" d="
			M21.5,28.3h53"/>
		<path id="path1420_00000146460324178262905390000011871424549664122243_" inkscape:connector-curvature="0" class="st12" d="
			M21.5,26.1h53"/>
		<path id="path1422_00000157287089589031881400000007492785793285680030_" inkscape:connector-curvature="0" class="st12" d="
			M21.5,27.2h53"/>
		<path id="path1424_00000079463780895095416140000008062888718312831623_" inkscape:connector-curvature="0" class="st12" d="
			M21.5,23.9h53"/>
		<path id="path1426_00000131335193228159591950000002072692402130346932_" inkscape:connector-curvature="0" class="st12" d="
			M21.5,45.9h53"/>
		<path id="path1428_00000083055767667955053550000012818494289190142870_" inkscape:connector-curvature="0" class="st12" d="
			M21.5,9.6h53"/>
		<path id="path1430_00000038396789794098742160000016214703782063507342_" inkscape:connector-curvature="0" class="st12" d="
			M21.5,10.7h53"/>
		<path id="path1432_00000013183794655508474570000007995089836768600707_" inkscape:connector-curvature="0" class="st12" d="
			M21.5,12.9h53"/>
		<path id="path1434_00000172417217545485644910000012352732230559795380_" inkscape:connector-curvature="0" class="st12" d="
			M21.5,37.1h53"/>
		<path id="path1436_00000024721589538152917040000013514769053128798897_" inkscape:connector-curvature="0" class="st12" d="
			M21.5,38.2h53"/>
		<path id="path1438_00000140000262758014170530000017306552169411176621_" inkscape:connector-curvature="0" class="st12" d="
			M21.5,43.7h53"/>
		<path id="path1440_00000003816642147341554210000006451797989337438870_" inkscape:connector-curvature="0" class="st12" d="
			M21.5,17.3h53"/>
		<path id="path1442_00000026868837947874514680000005469558713520722080_" inkscape:connector-curvature="0" class="st12" d="
			M21.5,40.4h53"/>
		<path id="path1444_00000060749000669811227780000014364509076006207935_" inkscape:connector-curvature="0" class="st12" d="
			M21.5,41.5h53"/>
		<path id="path1446_00000170998847439288572730000008861171945396968861_" inkscape:connector-curvature="0" class="st12" d="
			M21.5,6.3h53"/>
		<path id="path1448_00000085250532844434132340000014281238809348502967_" inkscape:connector-curvature="0" class="st12" d="
			M21.5,30.5h53"/>
		<path id="path1450_00000179624403461183864210000006154061579735165868_" inkscape:connector-curvature="0" class="st12" d="
			M21.5,31.6h53"/>
		<path id="path1452_00000129889628560377879450000015194057717879292828_" inkscape:connector-curvature="0" class="st12" d="
			M21.5,49.2h53"/>
		<path id="path1454_00000165226536440207588550000009992029310388287664_" inkscape:connector-curvature="0" class="st12" d="
			M21.5,16.2h53"/>
		<path id="path1456_00000032645883501809291620000005328434717381005739_" inkscape:connector-curvature="0" class="st12" d="
			M21.5,15.1h53"/>
		<path id="path1458_00000080191212247191818660000000168503604256511919_" inkscape:connector-curvature="0" class="st12" d="
			M21.5,36h53"/>
		<path id="path1460_00000160899856039701596120000004889296120910244026_" inkscape:connector-curvature="0" class="st12" d="
			M21.5,50.3h53"/>
		<path id="path1462_00000146496719942486553940000005220273960775219084_" inkscape:connector-curvature="0" class="st12" d="
			M21.5,20.6h53"/>
		<path id="path1464_00000172405347073938632970000001168091156531899313_" inkscape:connector-curvature="0" class="st12" d="
			M21.5,21.7h53"/>
		<path id="path1466_00000000936628655976822200000006678822921001700250_" inkscape:connector-curvature="0" class="st12" d="
			M21.5,42.6h53"/>
		<path id="path1468_00000135691668281766162940000006714608782503834046_" inkscape:connector-curvature="0" class="st12" d="
			M21.5,18.4h53"/>
		<path id="path1470_00000093876851609582481780000000578543286148602008_" inkscape:connector-curvature="0" class="st12" d="
			M21.5,19.5h53"/>
		<path id="path1472_00000029761741085084648280000006140888814702355613_" inkscape:connector-curvature="0" class="st12" d="
			M21.5,34.9h53"/>
		<path id="path1474_00000058569221252351686770000005220847856745228434_" inkscape:connector-curvature="0" class="st12" d="
			M21.5,8.5h53"/>
	</g>
</g>
</svg>
